<svg width="36" height="31" viewBox="0 0 36 31" fill="none" xmlns="http://www.w3.org/2000/svg">
<path d="M25.6136 13.69C25.6136 13.6609 25.6252 13.6329 25.6458 13.6122C25.6665 13.5916 25.6944 13.58 25.7236 13.58C25.7528 13.58 25.7808 13.5916 25.8014 13.6122C25.822 13.6329 25.8336 13.6609 25.8336 13.69C26.0352 14.5634 26.5243 15.3437 27.2225 15.9059C27.9206 16.468 28.7874 16.7794 29.6836 16.79C30.356 16.7886 31.0169 16.615 31.6033 16.286C32.1897 15.9569 32.6821 15.4832 33.0336 14.91C33.5598 14.0034 33.7139 12.928 33.4636 11.91L31.1936 2.03003H4.3836L2.12362 11.91C1.86491 12.9264 2.01572 14.0038 2.54361 14.91C2.89517 15.4832 3.38758 15.9569 3.97396 16.286C4.56035 16.615 5.2212 16.7886 5.89361 16.79C6.78988 16.7794 7.65662 16.468 8.35476 15.9059C9.05291 15.3437 9.54201 14.5634 9.74362 13.69C9.751 13.6653 9.76617 13.6435 9.78689 13.6281C9.80761 13.6127 9.83276 13.6043 9.85861 13.6043C9.88445 13.6043 9.9096 13.6127 9.93032 13.6281C9.95104 13.6435 9.96622 13.6653 9.9736 13.69C10.1752 14.5634 10.6643 15.3437 11.3625 15.9059C12.0606 16.468 12.9273 16.7794 13.8236 16.79C14.7199 16.7794 15.5866 16.468 16.2848 15.9059C16.9829 15.3437 17.472 14.5634 17.6736 13.69C17.681 13.6653 17.6962 13.6435 17.7169 13.6281C17.7376 13.6127 17.7628 13.6043 17.7886 13.6043C17.8144 13.6043 17.8396 13.6127 17.8603 13.6281C17.881 13.6435 17.8962 13.6653 17.9036 13.69C18.1052 14.5634 18.5943 15.3437 19.2925 15.9059C19.9906 16.468 20.8573 16.7794 21.7536 16.79C22.6516 16.7816 23.5206 16.4713 24.2208 15.909C24.921 15.3466 25.4116 14.565 25.6136 13.69V13.69Z" stroke="white" stroke-width="3" stroke-miterlimit="10"/>
<path d="M10.6237 2L9.81372 15.2" stroke="white" stroke-width="3" stroke-miterlimit="10"/>
<path d="M25.8338 15.2L24.8738 2" stroke="white" stroke-width="3" stroke-miterlimit="10"/>
<path d="M17.8037 13.73V2.03003" stroke="white" stroke-width="3" stroke-miterlimit="10"/>
<path d="M30.9636 20.87V29.41H5.18359V20.87" stroke="white" stroke-width="3" stroke-miterlimit="10" stroke-linecap="round"/>
</svg>
