<svg width="50" height="40" viewBox="0 0 50 40" fill="none" xmlns="http://www.w3.org/2000/svg">
<path d="M25.6136 22.69C25.6136 22.6609 25.6252 22.6329 25.6458 22.6122C25.6665 22.5916 25.6944 22.58 25.7236 22.58C25.7528 22.58 25.7808 22.5916 25.8014 22.6122C25.822 22.6329 25.8336 22.6609 25.8336 22.69C26.0352 23.5634 26.5243 24.3437 27.2225 24.9059C27.9206 25.468 28.7874 25.7794 29.6836 25.79C30.356 25.7886 31.0169 25.615 31.6033 25.286C32.1897 24.9569 32.6821 24.4832 33.0336 23.91C33.5598 23.0034 33.7139 21.928 33.4636 20.91L31.1936 11.03H4.3836L2.12362 20.91C1.86491 21.9264 2.01572 23.0038 2.54361 23.91C2.89517 24.4832 3.38758 24.9569 3.97396 25.286C4.56035 25.615 5.2212 25.7886 5.89361 25.79C6.78988 25.7794 7.65662 25.468 8.35476 24.9059C9.05291 24.3437 9.54201 23.5634 9.74362 22.69C9.751 22.6653 9.76617 22.6435 9.78689 22.6281C9.80761 22.6127 9.83276 22.6043 9.85861 22.6043C9.88445 22.6043 9.9096 22.6127 9.93032 22.6281C9.95104 22.6435 9.96622 22.6653 9.9736 22.69C10.1752 23.5634 10.6643 24.3437 11.3625 24.9059C12.0606 25.468 12.9273 25.7794 13.8236 25.79C14.7199 25.7794 15.5866 25.468 16.2848 24.9059C16.9829 24.3437 17.472 23.5634 17.6736 22.69C17.681 22.6653 17.6962 22.6435 17.7169 22.6281C17.7376 22.6127 17.7628 22.6043 17.7886 22.6043C17.8144 22.6043 17.8396 22.6127 17.8603 22.6281C17.881 22.6435 17.8962 22.6653 17.9036 22.69C18.1052 23.5634 18.5943 24.3437 19.2925 24.9059C19.9906 25.468 20.8573 25.7794 21.7536 25.79C22.6516 25.7816 23.5206 25.4713 24.2208 24.909C24.921 24.3466 25.4116 23.565 25.6136 22.69V22.69Z" stroke="white" stroke-width="3" stroke-miterlimit="10"/>
<path d="M10.6237 11L9.81372 24.2" stroke="white" stroke-width="3" stroke-miterlimit="10"/>
<path d="M25.8338 24.2L24.8738 11" stroke="white" stroke-width="3" stroke-miterlimit="10"/>
<path d="M17.8037 22.73V11.03" stroke="white" stroke-width="3" stroke-miterlimit="10"/>
<path d="M30.9636 29.8701V38.4101H5.18359V29.8701" stroke="white" stroke-width="3" stroke-miterlimit="10" stroke-linecap="round"/>
<line x1="43.5" y1="1.5" x2="43.5" y2="11.5" stroke="white" stroke-width="3" stroke-linecap="round"/>
<line x1="48.5" y1="6.5" x2="38.5" y2="6.5" stroke="white" stroke-width="3" stroke-linecap="round"/>
</svg>
