<svg width="133" height="28" viewBox="0 0 133 28" fill="none" xmlns="http://www.w3.org/2000/svg">
<g clip-path="url(#clip0)">
<path d="M10.1142 15.0579C5.66903 14.119 4.8328 13.2947 4.8328 12.0869C4.8328 10.7424 6.39083 9.88282 8.79388 9.88282C11.1969 9.88282 12.9222 11.0333 13.1511 12.823L13.2435 13.5195H17.4115L17.3498 12.6599C17.077 8.80284 13.6044 6.10071 8.91273 6.10071C3.97897 6.10071 0.664858 8.51191 0.664858 12.0913C0.664858 16.4993 4.53352 17.879 7.90044 18.5887C12.4425 19.5541 13.2435 20.374 13.2435 21.7317C13.2435 23.1863 11.5314 24.2002 9.07997 24.2002C6.38203 24.2002 4.48952 22.8998 4.23865 20.8941L4.15942 20.18H-0.0217285L0.0398948 21.0396C0.334776 25.2052 3.89094 28.0044 8.89071 28.0044C13.8905 28.0044 17.4027 25.3595 17.4027 21.5862C17.4247 17.1341 13.2699 15.7279 10.1142 15.0579Z" fill="#003C96"/>
<path d="M26.6933 6.5592H19.0264V27.5636H23.1591V21.6304H26.6801C32.0143 21.6304 35.4605 18.6726 35.4605 14.0926C35.4605 9.5126 32.0275 6.5592 26.6933 6.5592ZM23.1723 10.4603H26.5128C28.3173 10.4603 31.3541 10.932 31.3541 14.0926C31.3541 17.2532 28.3217 17.7248 26.5128 17.7248H23.1723V10.4603Z" fill="#003C96"/>
<path d="M46.8199 6.09631C40.4426 6.09631 35.8169 10.7071 35.8169 17.0503C35.8169 23.2922 40.557 28 46.8463 28C53.2193 28 57.8493 23.3891 57.8493 17.0503C57.8493 10.8041 53.1092 6.09631 46.8199 6.09631ZM46.8463 24.0724C42.85 24.0724 39.9496 21.119 39.9496 17.0503C39.9496 12.9112 42.7752 10.0239 46.8199 10.0239C50.8646 10.0239 53.7166 12.9817 53.7166 17.0503C53.7166 21.119 50.825 24.0724 46.8463 24.0724Z" fill="#003C96"/>
<path d="M98.5209 7.36145V9.61396H87.2978V15.7147H97.6758V17.9717H87.2978V24.5088H98.7409V26.7613H84.7583V7.36586L98.5209 7.36145Z" fill="#B1B2B2"/>
<path d="M114.541 7.36145V9.61396H103.318V15.7147H113.692V17.9717H103.318V24.5088H114.761V26.7613H100.779V7.36586L114.541 7.36145Z" fill="#B1B2B2"/>
<path d="M122.82 18.1039L119.339 21.9918V26.7614H116.799V7.36588H119.339V18.5447L129.281 7.35266H132.45L124.466 16.2658L132.982 26.7614H129.743L122.82 18.1039Z" fill="#B1B2B2"/>
<path d="M66.0049 27.3124C65.7394 27.3116 65.4811 27.2256 65.268 27.0669C65.0549 26.9082 64.8982 26.6853 64.821 26.4308L59.3547 8.37979C59.2684 8.06779 59.3075 7.73436 59.4636 7.45087C59.6197 7.16738 59.8805 6.95637 60.19 6.86303C60.4995 6.76968 60.8332 6.80142 61.1196 6.95144C61.4061 7.10146 61.6225 7.35784 61.7226 7.66568L67.1889 25.7123C67.2836 26.0268 67.2502 26.366 67.096 26.656C66.9418 26.9459 66.6793 27.1629 66.3658 27.2595C66.2487 27.2943 66.1271 27.3121 66.0049 27.3124Z" fill="#B1B2B2"/>
<path d="M75.8328 27.3123C75.5671 27.3122 75.3084 27.2264 75.0952 27.0676C74.882 26.9088 74.7255 26.6855 74.6489 26.4306L69.165 8.37963C69.0704 8.06456 69.1047 7.72478 69.2603 7.43503C69.4159 7.14528 69.68 6.9293 69.9946 6.8346C70.3092 6.73991 70.6484 6.77425 70.9377 6.93008C71.227 7.08591 71.4427 7.35046 71.5372 7.66553L75.8196 21.8066L80.102 7.66553C80.1995 7.35211 80.4161 7.08961 80.7051 6.9346C80.994 6.77959 81.3322 6.74448 81.6468 6.83681C81.9599 6.9325 82.2224 7.14864 82.3767 7.43785C82.531 7.72705 82.5645 8.06573 82.4698 8.37963L77.0035 26.4306C76.9276 26.6833 76.7731 26.9051 76.5625 27.0637C76.3519 27.2223 76.0962 27.3094 75.8328 27.3123Z" fill="#B1B2B2"/>
<path d="M70.3666 4.03778C71.4798 4.03778 72.3823 3.1339 72.3823 2.01889C72.3823 0.903889 71.4798 0 70.3666 0C69.2533 0 68.3508 0.903889 68.3508 2.01889C68.3508 3.1339 69.2533 4.03778 70.3666 4.03778Z" fill="#003C96"/>
</g>
<defs>
<clipPath id="clip0">
<rect width="133" height="28" fill="white"/>
</clipPath>
</defs>
</svg>
